<?xml version="1.0" encoding="UTF-8"?> <svg xmlns="http://www.w3.org/2000/svg" viewBox="0 0 263.82 71.58"><defs><style>.cls-1{fill:#001e61;}</style></defs><g id="Layer_2" data-name="Layer 2"><g id="Layer_1-2" data-name="Layer 1"><path class="cls-1" d="M67.81,21.56C67.81,9.92,60.27,0,43.45,0H9V32.24H0V43.12H9V71.58H20.81V43.12H34.07L55.74,71.58H70.51l-22-28.78C61.88,41.07,67.81,31.91,67.81,21.56Zm-47,10.67V10.89H43C51.1,10.89,56,14.66,56,21.56S51.1,32.23,43,32.23Z"></path><polygon class="cls-1" points="80.55 71.58 129.92 71.58 129.92 60.69 92.4 60.69 92.4 41.18 129.16 41.18 129.16 30.29 92.4 30.29 92.4 10.89 129.92 10.89 129.92 0 80.55 0 80.55 71.58"></polygon><polygon class="cls-1" points="147.53 71.58 196.9 71.58 196.9 60.69 159.39 60.69 159.39 41.18 196.15 41.18 196.15 30.29 159.39 30.29 159.39 10.89 196.9 10.89 196.9 0 147.53 0 147.53 71.58"></polygon><polygon class="cls-1" points="263.82 10.89 263.82 0 214.45 0 214.45 71.58 226.31 71.58 226.31 41.18 263.06 41.18 263.06 30.29 226.31 30.29 226.31 10.89 263.82 10.89"></polygon></g></g></svg> 